<svg xmlns="http://www.w3.org/2000/svg" width="68" height="50" viewBox="0 0 68 50">
  <g fill="none" fill-rule="evenodd">
    <polygon fill="#FFF" points="3.196 23.51 28.256 -4.483 39.885 -13.447 52.918 -3.979 51.235 8.572 63.587 17.546 49.449 42.5 34.957 62.447 15.125 48.039 .749 40.419" transform="rotate(54 32.168 24.5)"/>
    <path fill="#000" d="M13.951,24.1486574 C8.96,24.1486574 5.302,20.3046574 5.302,15.5616574 L5.302,15.4996574 C5.302,10.7566574 8.929,6.85065741 14.013,6.85065741 C17.144,6.85065741 19.097,7.90465741 20.647,9.64065741 L17.764,12.7406574 C16.71,11.6246574 15.656,10.9116574 13.982,10.9116574 C11.626,10.9116574 9.952,12.9886574 9.952,15.4376574 L9.952,15.4996574 C9.952,18.0416574 11.595,20.0876574 14.168,20.0876574 C15.749,20.0876574 16.834,19.4056574 17.981,18.3206574 L20.74,21.1106574 C19.128,22.8776574 17.268,24.1486574 13.951,24.1486574 Z M28.197,24.1486574 C23.051,24.1486574 19.238,20.3356574 19.238,15.5616574 L19.238,15.4996574 C19.238,10.7256574 23.082,6.85065741 28.259,6.85065741 C33.405,6.85065741 37.218,10.6636574 37.218,15.4376574 L37.218,15.4996574 C37.218,20.2736574 33.374,24.1486574 28.197,24.1486574 Z M28.259,20.0876574 C30.956,20.0876574 32.568,18.0106574 32.568,15.5616574 L32.568,15.4996574 C32.568,13.0506574 30.801,10.9116574 28.197,10.9116574 C25.5,10.9116574 23.888,12.9886574 23.888,15.4376574 L23.888,15.4996574 C23.888,17.9486574 25.655,20.0876574 28.259,20.0876574 Z M37.3280001,23.7766574 L42.0400001,23.7766574 L42.0400001,14.5076574 C42.0400001,12.2756574 43.1250001,11.1286574 44.8920001,11.1286574 C46.6590001,11.1286574 47.6510001,12.2756574 47.6510001,14.5076574 L47.6510001,23.7766574 L52.3630001,23.7766574 L52.3630001,14.5076574 C52.3630001,12.2756574 53.4480001,11.1286574 55.2150001,11.1286574 C56.9820001,11.1286574 57.9740001,12.2756574 57.9740001,14.5076574 L57.9740001,23.7766574 L62.6860001,23.7766574 L62.6860001,12.9576574 C62.6860001,8.95865741 60.5780001,6.85065741 57.0750001,6.85065741 C54.8120001,6.85065741 53.0760001,7.78065741 51.6190001,9.48565741 C50.7510001,7.81165741 49.1080001,6.85065741 46.9380001,6.85065741 C44.5510001,6.85065741 43.1250001,8.12165741 42.0400001,9.51665741 L42.0400001,7.16065741 L37.3280001,7.16065741 L37.3280001,23.7766574 Z M11.936,45.0866574 C9.611,45.0866574 7.007,44.3116574 4.806,42.5756574 L6.821,39.4756574 C8.619,40.7776574 10.51,41.4596574 12.06,41.4596574 C13.424,41.4596574 14.044,40.9636574 14.044,40.2196574 L14.044,40.1576574 C14.044,39.1346574 12.432,38.7936574 10.603,38.2356574 C8.278,37.5536574 5.643,36.4686574 5.643,33.2446574 L5.643,33.1826574 C5.643,29.8036574 8.371,27.9126574 11.719,27.9126574 C13.827,27.9126574 16.121,28.6256574 17.919,29.8346574 L16.121,33.0896574 C14.478,32.1286574 12.835,31.5396574 11.626,31.5396574 C10.479,31.5396574 9.89,32.0356574 9.89,32.6866574 L9.89,32.7486574 C9.89,33.6786574 11.471,34.1126574 13.269,34.7326574 C15.594,35.5076574 18.291,36.6236574 18.291,39.6616574 L18.291,39.7236574 C18.291,43.4126574 15.532,45.0866574 11.936,45.0866574 Z M26.523,45.1486574 C21.377,45.1486574 17.564,41.3356574 17.564,36.5616574 L17.564,36.4996574 C17.564,31.7256574 21.408,27.8506574 26.585,27.8506574 C31.731,27.8506574 35.544,31.6636574 35.544,36.4376574 L35.544,36.4996574 C35.544,41.2736574 31.7,45.1486574 26.523,45.1486574 Z M26.585,41.0876574 C29.282,41.0876574 30.894,39.0106574 30.894,36.5616574 L30.894,36.4996574 C30.894,34.0506574 29.127,31.9116574 26.523,31.9116574 C23.826,31.9116574 22.214,33.9886574 22.214,36.4376574 L22.214,36.4996574 C22.214,38.9486574 23.981,41.0876574 26.585,41.0876574 Z M43.4970001,45.1486574 C38.5060001,45.1486574 34.8480001,41.3046574 34.8480001,36.5616574 L34.8480001,36.4996574 C34.8480001,31.7566574 38.4750001,27.8506574 43.5590001,27.8506574 C46.6900001,27.8506574 48.6430001,28.9046574 50.1930001,30.6406574 L47.3100001,33.7406574 C46.2560001,32.6246574 45.2020001,31.9116574 43.5280001,31.9116574 C41.1720001,31.9116574 39.4980001,33.9886574 39.4980001,36.4376574 L39.4980001,36.4996574 C39.4980001,39.0416574 41.1410001,41.0876574 43.7140001,41.0876574 C45.2950001,41.0876574 46.3800001,40.4056574 47.5270001,39.3206574 L50.2860001,42.1106574 C48.6740001,43.8776574 46.8140001,45.1486574 43.4970001,45.1486574 Z"/>
  </g>
</svg>
